<svg width="32" height="32" viewBox="0 0 32 32" fill="none" xmlns="http://www.w3.org/2000/svg">
<path d="M18.666 22.667H6.66602" stroke="white" stroke-width="2.66667" stroke-linecap="round" stroke-linejoin="round"/>
<path d="M25.3342 9.33252H13.3342" stroke="white" stroke-width="2.66667" stroke-linecap="round" stroke-linejoin="round"/>
<path d="M22.666 26.667C24.8752 26.667 26.666 24.8761 26.666 22.667C26.666 20.4579 24.8752 18.667 22.666 18.667C20.4569 18.667 18.666 20.4579 18.666 22.667C18.666 24.8761 20.4569 26.667 22.666 26.667Z" stroke="white" stroke-width="2.66667" stroke-linecap="round" stroke-linejoin="round"/>
<path d="M9.33398 13.3325C11.5431 13.3325 13.334 11.5417 13.334 9.33252C13.334 7.12338 11.5431 5.33252 9.33398 5.33252C7.12485 5.33252 5.33398 7.12338 5.33398 9.33252C5.33398 11.5417 7.12485 13.3325 9.33398 13.3325Z" stroke="white" stroke-width="2.66667" stroke-linecap="round" stroke-linejoin="round"/>
</svg>
